# xmcd CD database file
#
# Track frame offsets:
#	150
#	21537
#	41481
#	56261
#	73506
#	92376
#	108383
#	122711
#	140800
#	158100
#	172540
#	191022
#
# Disc length: 2659 seconds
#
# Revision: 0
# Processed by: cddbd v1.5.1PL0 Copyright (c) Steve Scherf et al.
# Submitted via: CDex 1.51
#
DISCID=9a0a610c
DTITLE=John Denver - Greatest Hits-Disc 3
DYEAR=2005
DGENRE=Country
TTITLE0=Rocky Mountain High
TTITLE1=My Sweet Lady
TTITLE2=Rhymes and Reasons
TTITLE3=Molly
TTITLE4=Fly Away
TTITLE5=I'm Sorry
TTITLE6=How Can I Leave You Again
TTITLE7=Looking for Space
TTITLE8=Seasons of the Heart
TTITLE9=Shanghai Breezes
TTITLE10=Wild Montana Skies
TTITLE11=Perhaps Love
EXTD=YEAR: 2005
EXTT0=
EXTT1=
EXTT2=
EXTT3=
EXTT4=
EXTT5=
EXTT6=
EXTT7=
EXTT8=
EXTT9=
EXTT10=
EXTT11=
PLAYORDER=
